<?xml version='1.0' encoding='utf-8'?>
<svg xmlns="http://www.w3.org/2000/svg" xmlns:dc="http://purl.org/dc/elements/1.1/" xmlns:ns2="http://creativecommons.org/ns#" xmlns:rdf="http://www.w3.org/1999/02/22-rdf-syntax-ns#" xmlns:xlink="http://www.w3.org/1999/xlink" viewBox="0 0 576 446.4" version="1.1" preserveAspectRatio="xMidYMid meet">
 <metadata>
  <rdf:RDF>
   <ns2:Work>
    <dc:type rdf:resource="http://purl.org/dc/dcmitype/StillImage" />
    <dc:date>2026-09-14T22:19:37.214691</dc:date>
    <dc:format>image/svg+xml</dc:format>
    <dc:creator>
     <ns2:Agent>
      <dc:title>Matplotlib v3.11.2, https://matplotlib.org/</dc:title>
     </ns2:Agent>
    </dc:creator>
   </ns2:Work>
  </rdf:RDF>
 </metadata>
 <defs>
  <style type="text/css">*{stroke-linejoin: round; stroke-linecap: butt}</style>
 </defs>
 <g id="figure_1">
  <g id="axes_1">
   <g id="line2d_25">
    <path d="M 60.390747 135.923089  L 65.643194 151.986273  L 70.89564 171.262094  L 76.148087 124.67886  L 81.400534 134.316771  L 86.65298 166.443139  L 91.905427 161.624184  L 97.157873 192.144234  L 102.41032 196.963189  L 107.662767 164.836821  L 112.915213 184.112642  L 118.16766 184.112642  L 123.420106 142.348363  L 128.672553 126.285179  L 133.925 148.773637  L 139.177446 29.906074  L 144.429893 45.969258  L 149.68234 47.575576  L 154.934786 12.236571  L 160.187233 113.434631  L 165.439679 143.954681  L 170.692126 180.900005  L 175.944573 177.687368  L 181.197019 184.112642  L 186.449466 166.443139  L 191.701912 177.687368  L 196.954359 180.900005  L 202.206806 156.805229  L 207.459252 140.742044  L 212.711699 155.19891  L 217.964146 185.71896  L 223.216592 193.750552  L 228.469039 187.325279  L 233.721485 195.356871  L 238.973932 185.71896  L 244.226379 158.411547  L 249.478825 158.411547  L 254.731272 148.773637  L 259.983718 164.836821  L 265.236165 166.443139  L 270.488612 150.379955  L 275.741058 119.859905  L 280.993505 132.710452  L 286.245952 129.497815  L 291.498398 126.285179  L 296.750845 164.836821  L 302.003291 184.112642  L 307.255738 187.325279  L 312.508185 168.049458  L 317.760631 179.293686  L 323.013078 163.230502  L 328.265524 163.230502  L 333.517971 163.230502  L 338.770418 163.230502  L 344.022864 161.624184  L 349.275311 177.687368  L 354.527758 155.19891  L 359.780204 168.049458  L 365.032651 164.836821  L 370.285097 156.805229  L 375.537544 150.379955  L 380.789991 158.411547  L 386.042437 37.937666  L 391.294884 47.575576  L 396.54733 113.434631  L 401.799777 108.615676  L 407.052224 161.624184  L 412.30467 126.285179  L 417.557117 79.701945  L 422.809564 108.615676  L 428.06201 84.5209  L 433.314457 54.00085  L 438.566903 118.253587  L 443.81935 105.403039  L 449.071797 68.457716  L 454.324243 26.693437  L 459.57669 70.064034  L 464.829136 129.497815  L 470.081583 116.647268  L 475.33403 107.009358  L 480.586476 139.135726  L 485.838923 166.443139  L 491.09137 176.08105  L 496.343816 158.411547  L 501.596263 113.434631  L 506.848709 107.009358  L 512.101156 124.67886  L 517.353603 108.615676  L 522.606049 102.190402  L 527.858496 158.411547  L 533.110942 139.135726  L 538.363389 123.072542  " clip-path="url(#p9d01ecb25d)" style="fill: none; stroke: #ffffff; stroke-width: 1.2; stroke-linecap: square" />
   </g>
   <g id="PathCollection_1">
    <defs>
     <path id="m49734b916b" d="M 0 2.645751  C 0.701661 2.645751 1.374679 2.366978 1.870829 1.870829  C 2.366978 1.374679 2.645751 0.701661 2.645751 0  C 2.645751 -0.701661 2.366978 -1.374679 1.870829 -1.870829  C 1.374679 -2.366978 0.701661 -2.645751 0 -2.645751  C -0.701661 -2.645751 -1.374679 -2.366978 -1.870829 -1.870829  C -2.366978 -1.374679 -2.645751 -0.701661 -2.645751 0  C -2.645751 0.701661 -2.366978 1.374679 -1.870829 1.870829  C -1.374679 2.366978 -0.701661 2.645751 0 2.645751  z " style="stroke: #ffffff" />
    </defs>
    <g clip-path="url(#p9d01ecb25d)">
     <use xlink:href="#m49734b916b" x="60.390747" y="135.923089" style="fill: #ffffff; stroke: #ffffff" />
     <use xlink:href="#m49734b916b" x="76.148087" y="124.67886" style="fill: #ffffff; stroke: #ffffff" />
     <use xlink:href="#m49734b916b" x="501.596263" y="113.434631" style="fill: #ffffff; stroke: #ffffff" />
     <use xlink:href="#m49734b916b" x="506.848709" y="107.009358" style="fill: #ffffff; stroke: #ffffff" />
     <use xlink:href="#m49734b916b" x="538.363389" y="123.072542" style="fill: #ffffff; stroke: #ffffff" />
    </g>
   </g>
   </g>
  <g id="axes_2">
   <g id="line2d_48">
    <path d="M 36.492115 248.354486  L 562.262021 248.354486  " clip-path="url(#p233efe28db)" style="fill: none; stroke-dasharray: 1,1.65; stroke-dashoffset: 0; stroke: #4e4e4e" />
   </g>
   <g id="line2d_49">
    <path d="M 60.390747 248.069853  L 65.643194 276.106173  L 70.89564 258.031997  L 76.148087 239.530872  L 81.400534 254.758721  L 86.65298 266.713295  L 91.905427 269.98657  L 97.157873 278.9525  L 102.41032 254.189456  L 107.662767 264.293917  L 112.915213 282.08346  L 118.16766 295.745829  L 123.420106 288.060747  L 128.672553 267.851825  L 133.925 269.98657  L 139.177446 236.969178  L 144.429893 253.904823  L 149.68234 260.309059  L 154.934786 258.031997  L 160.187233 271.694367  L 165.439679 269.274989  L 170.692126 252.48166  L 175.944573 268.990356  L 181.197019 300.584585  L 186.449466 295.176564  L 191.701912 305.992606  L 196.954359 292.61487  L 202.206806 237.253811  L 207.459252 256.466518  L 212.711699 277.102388  L 217.964146 298.307524  L 223.216592 258.743579  L 228.469039 270.982785  L 233.721485 281.229562  L 238.973932 312.681475  L 244.226379 297.738258  L 249.478825 290.622441  L 254.731272 277.956286  L 259.983718 279.094817  L 265.236165 278.9525  L 270.488612 294.607298  L 275.741058 283.079674  L 280.993505 277.81397  L 286.245952 278.667868  L 291.498398 257.889681  L 296.750845 273.259846  L 302.003291 268.278774  L 307.255738 247.215955  L 312.508185 272.121316  L 317.760631 276.817755  L 323.013078 283.364307  L 328.265524 281.514195  L 333.517971 251.912394  L 338.770418 265.71708  L 344.022864 266.144029  L 349.275311 272.832897  L 354.527758 284.929787  L 359.780204 270.698152  L 365.032651 258.174314  L 370.285097 246.362057  L 375.537544 248.923751  L 380.789991 268.990356  L 386.042437 265.574764  L 391.294884 269.559621  L 396.54733 276.533122  L 401.799777 274.68301  L 407.052224 287.633798  L 412.30467 264.1516  L 417.557117 254.331772  L 422.809564 255.754936  L 428.06201 253.335558  L 433.314457 273.259846  L 438.566903 286.779899  L 443.81935 289.199277  L 449.071797 270.128887  L 454.324243 244.511944  L 459.57669 267.424876  L 464.829136 266.997927  L 470.081583 256.039569  L 475.33403 257.178099  L 480.586476 284.075889  L 485.838923 297.311309  L 491.09137 261.874539  L 496.343816 246.362057  L 501.596263 237.253811  L 506.848709 220.318165  L 512.101156 257.889681  L 517.353603 266.286345  L 522.606049 256.181885  L 527.858496 296.742044  L 533.110942 282.225776  L 538.363389 222.737543  " clip-path="url(#p233efe28db)" style="fill: none; stroke: #d5d5d5; stroke-width: 1.2; stroke-linecap: square" />
   </g>
   </g>
  <g id="axes_3">
   <g id="line2d_74">
    <path d="M 36.492115 336.525736  L 562.262021 336.525736  " clip-path="url(#p7c3acd6046)" style="fill: none; stroke-dasharray: 1,1.65; stroke-dashoffset: 0; stroke: #4e4e4e" />
   </g>
   <g id="line2d_75">
    <path d="M 191.701912 372.750008  L 196.954359 368.758471  L 202.206806 385.067977  L 207.459252 380.089286  L 212.711699 387.213965  L 217.964146 396.956749  L 223.216592 391.634699  L 228.469039 392.020977  L 233.721485 371.076137  L 238.973932 370.947378  L 244.226379 375.196434  L 249.478825 381.891915  L 254.731272 397.815144  L 259.983718 396.956749  L 265.236165 385.153817  L 270.488612 363.393502  L 275.741058 353.006921  L 280.993505 357.556415  L 286.245952 414.854286  L 291.498398 390.390026  L 296.750845 386.484329  L 302.003291 376.441107  L 307.255738 362.320508  L 312.508185 373.823002  L 317.760631 384.037903  L 323.013078 389.274113  L 328.265524 395.969594  L 333.517971 368.500952  L 338.770418 363.865619  L 344.022864 378.801693  L 349.275311 391.677619  L 354.527758 381.591477  L 359.780204 364.638175  L 365.032651 372.835847  L 370.285097 378.758773  L 375.537544 368.071755  L 380.789991 355.453347  L 386.042437 369.273508  L 391.294884 409.103039  L 396.54733 417.343632  L 401.799777 395.540397  L 407.052224 404.811064  L 412.30467 385.368415  L 417.557117 351.247211  L 422.809564 401.034125  L 428.06201 331.418285  L 433.314457 356.054224  L 438.566903 399.617773  L 443.81935 353.865316  L 449.071797 355.625026  L 454.324243 397.214267  L 459.57669 383.780384  L 464.829136 367.857156  L 470.081583 342.062384  L 475.33403 350.818014  L 480.586476 393.609008  L 485.838923 423.781595  L 491.09137 423.781595  L 496.343816 416.056039  L 501.596263 376.441107  L 506.848709 354.552032  L 512.101156 373.951761  L 517.353603 350.217137  L 522.606049 374.895996  L 527.858496 397.686385  L 533.110942 420.348014  L 538.363389 418.416625  " clip-path="url(#p7c3acd6046)" style="fill: none; stroke: #b5b5b5; stroke-width: 1.2; stroke-linecap: square" />
   </g>
   </g>
 </g>
 <defs>
  <clipPath id="p9d01ecb25d">
   <rect x="36.492115" y="3.00024" width="525.769906" height="203.19928" />
  </clipPath>
  <clipPath id="p233efe28db">
   <rect x="36.492115" y="215.7" width="525.769906" height="101.59964" />
  </clipPath>
  <clipPath id="p7c3acd6046">
   <rect x="36.492115" y="326.80012" width="525.769906" height="101.59964" />
  </clipPath>
 </defs>
</svg>